<?xml version="1.0" encoding="UTF-8" standalone="no"?><svg xmlns="http://www.w3.org/2000/svg" xmlns:xlink="http://www.w3.org/1999/xlink" contentScriptType="application/ecmascript" contentStyleType="text/css" height="776px" preserveAspectRatio="none" style="width:508px;height:776px;background:#FFFFFF;" version="1.1" viewBox="0 0 508 776" width="508px" zoomAndPan="magnify"><defs><filter height="300%" id="f1dgyu6d5lk9p5" width="300%" x="-1" y="-1"><feGaussianBlur result="blurOut" stdDeviation="2.0"/><feColorMatrix in="blurOut" result="blurOut2" type="matrix" values="0 0 0 0 0 0 0 0 0 0 0 0 0 0 0 0 0 0 .4 0"/><feOffset dx="4.0" dy="4.0" in="blurOut2" result="blurOut3"/><feBlend in="SourceGraphic" in2="blurOut3" mode="normal"/></filter></defs><g><!--MD5=[b27c5c9af3cea12247b1c4c8d3c78770]
cluster GUI--><polygon fill="#FFFFFF" filter="url(#f1dgyu6d5lk9p5)" points="48.75,6,79.75,6,86.75,29.6094,250.75,29.6094,250.75,134,48.75,134,48.75,6" style="stroke:#000000;stroke-width:1.5;"/><line style="stroke:#000000;stroke-width:1.5;" x1="48.75" x2="86.75" y1="29.6094" y2="29.6094"/><text fill="#000000" font-family="sans-serif" font-size="14" font-weight="bold" lengthAdjust="spacing" textLength="25" x="52.75" y="22.5332">GUI</text><!--MD5=[cfd2452a3b2e2e1da579485938b377ab]
cluster LogicEngine--><polygon fill="#FFFFFF" filter="url(#f1dgyu6d5lk9p5)" points="64.75,167,157.75,167,164.75,190.6094,491.75,190.6094,491.75,769,64.75,769,64.75,167" style="stroke:#000000;stroke-width:1.5;"/><line style="stroke:#000000;stroke-width:1.5;" x1="64.75" x2="164.75" y1="190.6094" y2="190.6094"/><text fill="#000000" font-family="sans-serif" font-size="14" font-weight="bold" lengthAdjust="spacing" textLength="87" x="68.75" y="183.5332">LogicEngine</text><!--MD5=[6f29f313cd4199edbf91b9ce3a4faa98]
class Form--><rect codeLine="3" fill="#FEFECE" filter="url(#f1dgyu6d5lk9p5)" height="75.6719" id="Form" style="stroke:#A80036;stroke-width:1.5;" width="170" x="64.75" y="42"/><ellipse cx="131" cy="58" fill="#ADD1B2" rx="11" ry="11" style="stroke:#A80036;stroke-width:1.0;"/><path d="M133.7656,53.875 Q133.9219,53.6563 134.1094,53.5469 Q134.2969,53.4375 134.5156,53.4375 Q134.8906,53.4375 135.125,53.7031 Q135.3594,53.9531 135.3594,54.5625 L135.3594,56.0156 Q135.3594,56.625 135.125,56.8906 Q134.8906,57.1563 134.5156,57.1563 Q134.1719,57.1563 133.9688,56.9531 Q133.7656,56.7656 133.6563,56.25 Q133.6094,55.8906 133.4219,55.7031 Q133.0938,55.3281 132.4844,55.1094 Q131.875,54.8906 131.25,54.8906 Q130.4844,54.8906 129.8438,55.2188 Q129.2188,55.5469 128.7188,56.2969 Q128.2344,57.0469 128.2344,58.0781 L128.2344,59.1719 Q128.2344,60.4063 129.125,61.2344 Q130.0156,62.0469 131.6094,62.0469 Q132.5469,62.0469 133.2031,61.7969 Q133.5938,61.6406 134.0156,61.2031 Q134.2813,60.9375 134.4219,60.8594 Q134.5781,60.7813 134.7813,60.7813 Q135.1094,60.7813 135.3594,61.0469 Q135.625,61.2969 135.625,61.6406 Q135.625,61.9844 135.2813,62.3906 Q134.7813,62.9688 133.9844,63.2969 Q132.9063,63.75 131.6094,63.75 Q130.0938,63.75 128.8906,63.125 Q127.9063,62.625 127.2188,61.5625 Q126.5313,60.4844 126.5313,59.2031 L126.5313,58.0469 Q126.5313,56.7188 127.1406,55.5781 Q127.7656,54.4219 128.8594,53.8125 Q129.9531,53.1875 131.1875,53.1875 Q131.9219,53.1875 132.5625,53.3594 Q133.2188,53.5156 133.7656,53.875 Z " fill="#000000"/><text fill="#000000" font-family="sans-serif" font-size="12" lengthAdjust="spacing" textLength="29" x="151.5" y="62.9102">Form</text><line style="stroke:#A80036;stroke-width:1.5;" x1="65.75" x2="233.75" y1="74" y2="74"/><rect fill="none" height="6" style="stroke:#C82930;stroke-width:1.0;" width="6" x="72.75" y="82"/><text fill="#000000" font-family="sans-serif" font-size="11" lengthAdjust="spacing" textLength="144" x="84.75" y="89.4189">DataGridView dataGridView1</text><rect fill="none" height="6" style="stroke:#C82930;stroke-width:1.0;" width="6" x="72.75" y="95.8359"/><text fill="#000000" font-family="sans-serif" font-size="11" lengthAdjust="spacing" textLength="58" x="84.75" y="103.2549">Sheet sheet</text><line style="stroke:#A80036;stroke-width:1.5;" x1="65.75" x2="233.75" y1="109.6719" y2="109.6719"/><!--MD5=[d9b3d72ea640bacdea7c72528238f100]
class Sheet--><rect codeLine="13" fill="#FEFECE" filter="url(#f1dgyu6d5lk9p5)" height="103.3438" id="Sheet" style="stroke:#A80036;stroke-width:1.5;" width="89" x="105.25" y="207"/><ellipse cx="131.5" cy="223" fill="#ADD1B2" rx="11" ry="11" style="stroke:#A80036;stroke-width:1.0;"/><path d="M134.2656,218.875 Q134.4219,218.6563 134.6094,218.5469 Q134.7969,218.4375 135.0156,218.4375 Q135.3906,218.4375 135.625,218.7031 Q135.8594,218.9531 135.8594,219.5625 L135.8594,221.0156 Q135.8594,221.625 135.625,221.8906 Q135.3906,222.1563 135.0156,222.1563 Q134.6719,222.1563 134.4688,221.9531 Q134.2656,221.7656 134.1563,221.25 Q134.1094,220.8906 133.9219,220.7031 Q133.5938,220.3281 132.9844,220.1094 Q132.375,219.8906 131.75,219.8906 Q130.9844,219.8906 130.3438,220.2188 Q129.7188,220.5469 129.2188,221.2969 Q128.7344,222.0469 128.7344,223.0781 L128.7344,224.1719 Q128.7344,225.4063 129.625,226.2344 Q130.5156,227.0469 132.1094,227.0469 Q133.0469,227.0469 133.7031,226.7969 Q134.0938,226.6406 134.5156,226.2031 Q134.7813,225.9375 134.9219,225.8594 Q135.0781,225.7813 135.2813,225.7813 Q135.6094,225.7813 135.8594,226.0469 Q136.125,226.2969 136.125,226.6406 Q136.125,226.9844 135.7813,227.3906 Q135.2813,227.9688 134.4844,228.2969 Q133.4063,228.75 132.1094,228.75 Q130.5938,228.75 129.3906,228.125 Q128.4063,227.625 127.7188,226.5625 Q127.0313,225.4844 127.0313,224.2031 L127.0313,223.0469 Q127.0313,221.7188 127.6406,220.5781 Q128.2656,219.4219 129.3594,218.8125 Q130.4531,218.1875 131.6875,218.1875 Q132.4219,218.1875 133.0625,218.3594 Q133.7188,218.5156 134.2656,218.875 Z " fill="#000000"/><text fill="#000000" font-family="sans-serif" font-size="12" lengthAdjust="spacing" textLength="32" x="148" y="227.9102">Sheet</text><line style="stroke:#A80036;stroke-width:1.5;" x1="106.25" x2="193.25" y1="239" y2="239"/><rect fill="none" height="6" style="stroke:#C82930;stroke-width:1.0;" width="6" x="113.25" y="247"/><text fill="#000000" font-family="sans-serif" font-size="11" lengthAdjust="spacing" textLength="52" x="125.25" y="254.4189">Cell[,] table</text><line style="stroke:#A80036;stroke-width:1.5;" x1="106.25" x2="193.25" y1="260.8359" y2="260.8359"/><ellipse cx="116.25" cy="271.8359" fill="#84BE84" rx="3" ry="3" style="stroke:#038048;stroke-width:1.0;"/><text fill="#000000" font-family="sans-serif" font-size="11" lengthAdjust="spacing" textLength="36" x="125.25" y="276.2549">Sheet()</text><polygon fill="#FFFF44" points="116.25,280.6719,120.25,284.6719,116.25,288.6719,112.25,284.6719" style="stroke:#B38D22;stroke-width:1.0;"/><text fill="#000000" font-family="sans-serif" font-size="11" lengthAdjust="spacing" textLength="60" x="125.25" y="290.0908">Cell getCell()</text><rect fill="#F24D5C" height="6" style="stroke:#C82930;stroke-width:1.0;" width="6" x="113.25" y="296.5078"/><text fill="#000000" font-family="sans-serif" font-size="11" lengthAdjust="spacing" textLength="63" x="125.25" y="303.9268">void setCell()</text><!--MD5=[fea3dc74c7473bae0133d22265a91e2f]
class Cell--><rect codeLine="20" fill="#FEFECE" filter="url(#f1dgyu6d5lk9p5)" height="61.8359" id="Cell" style="stroke:#A80036;stroke-width:1.5;" width="100" x="167.75" y="465"/><ellipse cx="203.45" cy="481" fill="#ADD1B2" rx="11" ry="11" style="stroke:#A80036;stroke-width:1.0;"/><path d="M206.2156,476.875 Q206.3719,476.6563 206.5594,476.5469 Q206.7469,476.4375 206.9656,476.4375 Q207.3406,476.4375 207.575,476.7031 Q207.8094,476.9531 207.8094,477.5625 L207.8094,479.0156 Q207.8094,479.625 207.575,479.8906 Q207.3406,480.1563 206.9656,480.1563 Q206.6219,480.1563 206.4188,479.9531 Q206.2156,479.7656 206.1063,479.25 Q206.0594,478.8906 205.8719,478.7031 Q205.5438,478.3281 204.9344,478.1094 Q204.325,477.8906 203.7,477.8906 Q202.9344,477.8906 202.2938,478.2188 Q201.6688,478.5469 201.1688,479.2969 Q200.6844,480.0469 200.6844,481.0781 L200.6844,482.1719 Q200.6844,483.4063 201.575,484.2344 Q202.4656,485.0469 204.0594,485.0469 Q204.9969,485.0469 205.6531,484.7969 Q206.0438,484.6406 206.4656,484.2031 Q206.7313,483.9375 206.8719,483.8594 Q207.0281,483.7813 207.2313,483.7813 Q207.5594,483.7813 207.8094,484.0469 Q208.075,484.2969 208.075,484.6406 Q208.075,484.9844 207.7313,485.3906 Q207.2313,485.9688 206.4344,486.2969 Q205.3563,486.75 204.0594,486.75 Q202.5438,486.75 201.3406,486.125 Q200.3563,485.625 199.6688,484.5625 Q198.9813,483.4844 198.9813,482.2031 L198.9813,481.0469 Q198.9813,479.7188 199.5906,478.5781 Q200.2156,477.4219 201.3094,476.8125 Q202.4031,476.1875 203.6375,476.1875 Q204.3719,476.1875 205.0125,476.3594 Q205.6688,476.5156 206.2156,476.875 Z " fill="#000000"/><text fill="#000000" font-family="sans-serif" font-size="12" lengthAdjust="spacing" textLength="22" x="222.05" y="485.9102">Cell</text><line style="stroke:#A80036;stroke-width:1.5;" x1="168.75" x2="266.75" y1="497" y2="497"/><line style="stroke:#A80036;stroke-width:1.5;" x1="168.75" x2="266.75" y1="505" y2="505"/><polygon fill="#4177AF" points="178.75,512,174.75,518,182.75,518" style="stroke:#1963A0;stroke-width:1.0;"/><text fill="#000000" font-family="sans-serif" font-size="11" lengthAdjust="spacing" textLength="74" x="187.75" y="520.4189">void setValue()</text><!--MD5=[3193becbba4f06ddd32abac549859b74]
class BaseCell--><rect codeLine="24" fill="#FEFECE" filter="url(#f1dgyu6d5lk9p5)" height="144.8516" id="BaseCell" style="stroke:#A80036;stroke-width:1.5;" width="100" x="167.75" y="608"/><ellipse cx="190.4" cy="624" fill="#ADD1B2" rx="11" ry="11" style="stroke:#A80036;stroke-width:1.0;"/><path d="M193.1656,619.875 Q193.3219,619.6563 193.5094,619.5469 Q193.6969,619.4375 193.9156,619.4375 Q194.2906,619.4375 194.525,619.7031 Q194.7594,619.9531 194.7594,620.5625 L194.7594,622.0156 Q194.7594,622.625 194.525,622.8906 Q194.2906,623.1563 193.9156,623.1563 Q193.5719,623.1563 193.3688,622.9531 Q193.1656,622.7656 193.0563,622.25 Q193.0094,621.8906 192.8219,621.7031 Q192.4938,621.3281 191.8844,621.1094 Q191.275,620.8906 190.65,620.8906 Q189.8844,620.8906 189.2438,621.2188 Q188.6188,621.5469 188.1188,622.2969 Q187.6344,623.0469 187.6344,624.0781 L187.6344,625.1719 Q187.6344,626.4063 188.525,627.2344 Q189.4156,628.0469 191.0094,628.0469 Q191.9469,628.0469 192.6031,627.7969 Q192.9938,627.6406 193.4156,627.2031 Q193.6813,626.9375 193.8219,626.8594 Q193.9781,626.7813 194.1813,626.7813 Q194.5094,626.7813 194.7594,627.0469 Q195.025,627.2969 195.025,627.6406 Q195.025,627.9844 194.6813,628.3906 Q194.1813,628.9688 193.3844,629.2969 Q192.3063,629.75 191.0094,629.75 Q189.4938,629.75 188.2906,629.125 Q187.3063,628.625 186.6188,627.5625 Q185.9313,626.4844 185.9313,625.2031 L185.9313,624.0469 Q185.9313,622.7188 186.5406,621.5781 Q187.1656,620.4219 188.2594,619.8125 Q189.3531,619.1875 190.5875,619.1875 Q191.3219,619.1875 191.9625,619.3594 Q192.6188,619.5156 193.1656,619.875 Z " fill="#000000"/><text fill="#000000" font-family="sans-serif" font-size="12" lengthAdjust="spacing" textLength="51" x="206.1" y="628.9102">BaseCell</text><line style="stroke:#A80036;stroke-width:1.5;" x1="168.75" x2="266.75" y1="640" y2="640"/><ellipse cx="178.75" cy="651" rx="3" ry="3" style="stroke:#038048;stroke-width:1.0;fill:none;"/><text fill="#000000" font-family="sans-serif" font-size="11" lengthAdjust="spacing" textLength="63" x="187.75" y="655.4189">int RowIndex</text><ellipse cx="178.75" cy="664.8359" rx="3" ry="3" style="stroke:#038048;stroke-width:1.0;fill:none;"/><text fill="#000000" font-family="sans-serif" font-size="11" lengthAdjust="spacing" textLength="55" x="187.75" y="669.2549">int ColIndex</text><rect fill="none" height="6" style="stroke:#C82930;stroke-width:1.0;" width="6" x="175.75" y="675.6719"/><text fill="#000000" font-family="sans-serif" font-size="11" lengthAdjust="spacing" textLength="48" x="187.75" y="683.0908">string text</text><rect fill="none" height="6" style="stroke:#C82930;stroke-width:1.0;" width="6" x="175.75" y="689.5078"/><text fill="#000000" font-family="sans-serif" font-size="11" lengthAdjust="spacing" textLength="56" x="187.75" y="696.9268">string value</text><ellipse cx="178.75" cy="706.3438" rx="3" ry="3" style="stroke:#038048;stroke-width:1.0;fill:none;"/><text fill="#000000" font-family="sans-serif" font-size="11" lengthAdjust="spacing" textLength="51" x="187.75" y="710.7627">string Text</text><ellipse cx="178.75" cy="720.1797" rx="3" ry="3" style="stroke:#038048;stroke-width:1.0;fill:none;"/><text fill="#000000" font-family="sans-serif" font-size="11" lengthAdjust="spacing" textLength="58" x="187.75" y="724.5986">string Value</text><line style="stroke:#A80036;stroke-width:1.5;" x1="168.75" x2="266.75" y1="731.0156" y2="731.0156"/><polygon fill="#FFFF44" points="178.75,737.0156,182.75,741.0156,178.75,745.0156,174.75,741.0156" style="stroke:#B38D22;stroke-width:1.0;"/><text fill="#000000" font-family="sans-serif" font-size="11" lengthAdjust="spacing" textLength="74" x="187.75" y="746.4346">void setValue()</text><path d="M117.75,374 L117.75,400.3516 L475.75,400.3516 L475.75,384 L465.75,374 L117.75,374 " fill="#FBFB77" filter="url(#f1dgyu6d5lk9p5)" style="stroke:#A80036;stroke-width:1.0;"/><path d="M465.75,374 L465.75,384 L475.75,384 L465.75,374 " fill="#FBFB77" style="stroke:#A80036;stroke-width:1.0;"/><text fill="#000000" font-family="sans-serif" font-size="13" lengthAdjust="spacing" textLength="337" x="123.75" y="392.4951">Sheet triggers event to set Cell's Value. Sheet-only action.</text><!--MD5=[b377685a9149e598f8f3ee3ebb19a2fb]
link Form to Sheet--><path codeLine="11" d="M149.75,118.33 C149.75,141.31 149.75,171.3 149.75,197.5 " fill="none" id="Form-to-Sheet" style="stroke:#A80036;stroke-width:1.0;"/><polygon fill="#A80036" points="149.75,202.69,153.75,193.69,149.75,197.69,145.75,193.69,149.75,202.69" style="stroke:#A80036;stroke-width:1.0;"/><!--MD5=[33f08ee6ac91bafbfc82b50a817fe60e]
reverse link Cell to BaseCell--><path codeLine="34" d="M217.75,550.28 C217.75,568.3 217.75,588.69 217.75,607.86 " fill="none" id="Cell-backto-BaseCell" style="stroke:#A80036;stroke-width:1.0;"/><polygon fill="none" points="210.75,550.07,217.75,530.07,224.75,550.06,210.75,550.07" style="stroke:#A80036;stroke-width:1.0;"/><text fill="#000000" font-family="sans-serif" font-size="13" lengthAdjust="spacing" textLength="49" x="218.75" y="574.4951">inherited</text><!--MD5=[6647f6203a133f493772c86f465bf634]
link Sheet to Cell--><path codeLine="36" d="M104.75,299 C6,299 64.1,508.92 161.49,516.3 " fill="none" id="Sheet-to-Cell" style="stroke:#A80036;stroke-width:1.0;"/><polygon fill="#A80036" points="166.75,516.5,157.9047,512.1687,161.7534,516.3144,157.6077,520.1632,166.75,516.5" style="stroke:#A80036;stroke-width:1.0;"/><!--MD5=[609a78f347f1075c637796a7106d1044]
link Sheet to SheetCell1--><path codeLine="38" d="M195.75,299 C241.11,299 276.22,350 290.18,373.9 " fill="none" id="Sheet-SheetCell1" style="stroke:#A80036;stroke-width:1.0;stroke-dasharray:7.0,7.0;"/><!--MD5=[66772b26b2b17f2a8e7430d49b9505a7]
link SheetCell1 to Cell--><path codeLine="39" d="M299.26,400.32 C305.15,432.48 316.01,516.5 268.75,516.5 " fill="none" id="SheetCell1-Cell" style="stroke:#A80036;stroke-width:1.0;stroke-dasharray:7.0,7.0;"/><!--MD5=[6759b87d18df338b2e79e9d8fe08f5df]
@startuml Sheet_Cell_Communication.png

package GUI {
    class Form {
        -DataGridView dataGridView1
        -Sheet sheet
    }
}

package LogicEngine {

    Form - -> Sheet

    class Sheet {
        -Cell[,] table
        +Sheet()
        #Cell getCell()
        -void setCell()
    }

    class Cell {
        ~void setValue()
    }

    class BaseCell {
        +int RowIndex
        +int ColIndex
        -string text
        -string value
        +string Text
        +string Value
        #void setValue()
    }

    Cell <|- - BaseCell : inherited

    Sheet::setCell -> Cell::setValue
    note "Sheet triggers event to set Cell's Value. Sheet-only action." as SheetCell1
    Sheet::setCell .. SheetCell1
    SheetCell1 .. Cell::setValue
}

@enduml

PlantUML version 1.2022.0(Tue Jan 11 08:16:42 PST 2022)
(GPL source distribution)
Java Runtime: OpenJDK Runtime Environment
JVM: OpenJDK 64-Bit Server VM
Default Encoding: Cp1252
Language: en
Country: US
--></g></svg>