<?xml version="1.0" encoding="UTF-8" standalone="no"?><svg xmlns="http://www.w3.org/2000/svg" xmlns:xlink="http://www.w3.org/1999/xlink" contentStyleType="text/css" height="832px" preserveAspectRatio="none" style="width:1135px;height:832px;background:#FFFFFF;" version="1.1" viewBox="0 0 1135 832" width="1135px" zoomAndPan="magnify"><defs/><g><line style="stroke:#181818;stroke-width:1.5;" x1="40" x2="40" y1="65.0938" y2="85.0938"/><rect fill="#F1F1F1" height="35.0938" style="stroke:#181818;stroke-width:1.5;" width="60" x="10" y="85.0938"/><text fill="#000000" font-family="sans-serif" font-size="12" lengthAdjust="spacing" textLength="40" x="20" y="107.5508">Docs.*/</text><line style="stroke:#181818;stroke-width:1.5;" x1="148" x2="148" y1="65.0938" y2="85.0938"/><rect fill="#F1F1F1" height="35.0938" style="stroke:#181818;stroke-width:1.5;" width="116" x="90" y="85.0938"/><text fill="#000000" font-family="sans-serif" font-size="12" lengthAdjust="spacing" textLength="96" x="100" y="107.5508">SpreadSheetApp/</text><line style="stroke:#181818;stroke-width:1.5;" x1="293" x2="293" y1="65.0938" y2="85.0938"/><rect fill="#F1F1F1" height="35.0938" style="stroke:#181818;stroke-width:1.5;" width="134" x="226" y="85.0938"/><text fill="#000000" font-family="sans-serif" font-size="12" lengthAdjust="spacing" textLength="114" x="236" y="107.5508">SpreadSheetEngine/</text><line style="stroke:#181818;stroke-width:1.5;" x1="293" x2="303" y1="152.7344" y2="152.7344"/><rect fill="#F1F1F1" height="35.0938" style="stroke:#181818;stroke-width:1.5;" width="164" x="303" y="135.1875"/><text fill="#000000" font-family="sans-serif" font-size="12" lengthAdjust="spacing" textLength="144" x="313" y="157.6445">ArithmeticExpressionTree/</text><line style="stroke:#181818;stroke-width:1.5;" x1="385" x2="395" y1="202.8281" y2="202.8281"/><rect fill="#F1F1F1" height="35.0938" style="stroke:#181818;stroke-width:1.5;" width="95" x="395" y="185.2813"/><text fill="#000000" font-family="sans-serif" font-size="12" lengthAdjust="spacing" textLength="75" x="405" y="207.7383">Components/</text><line style="stroke:#181818;stroke-width:1.5;" x1="442.5" x2="452.5" y1="252.9219" y2="252.9219"/><rect fill="#F1F1F1" height="35.0938" style="stroke:#181818;stroke-width:1.5;" width="67" x="452.5" y="235.375"/><text fill="#000000" font-family="sans-serif" font-size="12" lengthAdjust="spacing" textLength="47" x="462.5" y="257.832">Abstract/</text><line style="stroke:#181818;stroke-width:1.5;" x1="442.5" x2="452.5" y1="303.0156" y2="303.0156"/><rect fill="#F1F1F1" height="35.0938" style="stroke:#181818;stroke-width:1.5;" width="78" x="452.5" y="285.4688"/><text fill="#000000" font-family="sans-serif" font-size="12" lengthAdjust="spacing" textLength="58" x="462.5" y="307.9258">Operators/</text><line style="stroke:#181818;stroke-width:1.5;" x1="491.5" x2="501.5" y1="353.1094" y2="353.1094"/><rect fill="#F1F1F1" height="35.0938" style="stroke:#181818;stroke-width:1.5;" width="107" x="501.5" y="335.5625"/><text fill="#000000" font-family="sans-serif" font-size="12" lengthAdjust="spacing" textLength="87" x="511.5" y="358.0195">EnumAttributes/</text><line style="stroke:#181818;stroke-width:1.5;" x1="491.5" x2="501.5" y1="403.2031" y2="403.2031"/><rect fill="#F1F1F1" height="35.0938" style="stroke:#181818;stroke-width:1.5;" width="71" x="501.5" y="385.6563"/><text fill="#000000" font-family="sans-serif" font-size="12" lengthAdjust="spacing" textLength="51" x="511.5" y="408.1133">OpNode*</text><line style="stroke:#181818;stroke-width:1.5;" x1="491.5" x2="491.5" y1="320.5625" y2="403.2031"/><line style="stroke:#181818;stroke-width:1.5;" x1="442.5" x2="452.5" y1="453.2969" y2="453.2969"/><rect fill="#F1F1F1" height="35.0938" style="stroke:#181818;stroke-width:1.5;" width="68" x="452.5" y="435.75"/><text fill="#000000" font-family="sans-serif" font-size="12" lengthAdjust="spacing" textLength="48" x="462.5" y="458.207">VarNode</text><line style="stroke:#181818;stroke-width:1.5;" x1="442.5" x2="452.5" y1="503.3906" y2="503.3906"/><rect fill="#F1F1F1" height="35.0938" style="stroke:#181818;stroke-width:1.5;" width="83" x="452.5" y="485.8438"/><text fill="#000000" font-family="sans-serif" font-size="12" lengthAdjust="spacing" textLength="63" x="462.5" y="508.3008">ConstNode</text><line style="stroke:#181818;stroke-width:1.5;" x1="442.5" x2="442.5" y1="220.375" y2="503.3906"/><line style="stroke:#181818;stroke-width:1.5;" x1="385" x2="385" y1="170.2813" y2="202.8281"/><line style="stroke:#181818;stroke-width:1.5;" x1="293" x2="303" y1="553.4844" y2="553.4844"/><rect fill="#F1F1F1" height="35.0938" style="stroke:#181818;stroke-width:1.5;" width="85" x="303" y="535.9375"/><text fill="#000000" font-family="sans-serif" font-size="12" lengthAdjust="spacing" textLength="65" x="313" y="558.3945">SheetLogic/</text><line style="stroke:#181818;stroke-width:1.5;" x1="345.5" x2="355.5" y1="603.5781" y2="603.5781"/><rect fill="#F1F1F1" height="35.0938" style="stroke:#181818;stroke-width:1.5;" width="95" x="355.5" y="586.0313"/><text fill="#000000" font-family="sans-serif" font-size="12" lengthAdjust="spacing" textLength="75" x="365.5" y="608.4883">Components/</text><line style="stroke:#181818;stroke-width:1.5;" x1="403" x2="413" y1="653.6719" y2="653.6719"/><rect fill="#F1F1F1" height="35.0938" style="stroke:#181818;stroke-width:1.5;" width="67" x="413" y="636.125"/><text fill="#000000" font-family="sans-serif" font-size="12" lengthAdjust="spacing" textLength="47" x="423" y="658.582">Abstract/</text><line style="stroke:#181818;stroke-width:1.5;" x1="446.5" x2="456.5" y1="703.7656" y2="703.7656"/><rect fill="#F1F1F1" height="35.0938" style="stroke:#181818;stroke-width:1.5;" width="71" x="456.5" y="686.2188"/><text fill="#000000" font-family="sans-serif" font-size="12" lengthAdjust="spacing" textLength="51" x="466.5" y="708.6758">BaseCell</text><line style="stroke:#181818;stroke-width:1.5;" x1="446.5" x2="446.5" y1="671.2188" y2="703.7656"/><line style="stroke:#181818;stroke-width:1.5;" x1="403" x2="413" y1="753.8594" y2="753.8594"/><rect fill="#F1F1F1" height="35.0938" style="stroke:#181818;stroke-width:1.5;" width="142" x="413" y="736.3125"/><text fill="#000000" font-family="sans-serif" font-size="12" lengthAdjust="spacing" textLength="122" x="423" y="758.7695">Cell extends BaseCell</text><line style="stroke:#181818;stroke-width:1.5;" x1="403" x2="403" y1="621.125" y2="753.8594"/><line style="stroke:#181818;stroke-width:1.5;" x1="345.5" x2="355.5" y1="803.9531" y2="803.9531"/><rect fill="#F1F1F1" height="35.0938" style="stroke:#181818;stroke-width:1.5;" width="52" x="355.5" y="786.4063"/><text fill="#000000" font-family="sans-serif" font-size="12" lengthAdjust="spacing" textLength="32" x="365.5" y="808.8633">Sheet</text><line style="stroke:#181818;stroke-width:1.5;" x1="345.5" x2="345.5" y1="571.0313" y2="803.9531"/><line style="stroke:#181818;stroke-width:1.5;" x1="293" x2="293" y1="120.1875" y2="553.4844"/><line style="stroke:#181818;stroke-width:1.5;" x1="707.5" x2="707.5" y1="65.0938" y2="85.0938"/><rect fill="#F1F1F1" height="35.0938" style="stroke:#181818;stroke-width:1.5;" width="158" x="628.5" y="85.0938"/><text fill="#000000" font-family="sans-serif" font-size="12" lengthAdjust="spacing" textLength="138" x="638.5" y="107.5508">SpredSheetEngineTests/</text><line style="stroke:#181818;stroke-width:1.5;" x1="885" x2="885" y1="65.0938" y2="85.0938"/><rect fill="#F1F1F1" height="35.0938" style="stroke:#181818;stroke-width:1.5;" width="157" x="806.5" y="85.0938"/><text fill="#000000" font-family="sans-serif" font-size="12" lengthAdjust="spacing" textLength="137" x="816.5" y="107.5508">ExpressionTreeConsole/</text><line style="stroke:#181818;stroke-width:1.5;" x1="1054" x2="1054" y1="65.0938" y2="85.0938"/><rect fill="#F1F1F1" height="35.0938" style="stroke:#181818;stroke-width:1.5;" width="141" x="983.5" y="85.0938"/><text fill="#000000" font-family="sans-serif" font-size="12" lengthAdjust="spacing" textLength="121" x="993.5" y="107.5508">ExpressionTreeTests/</text><line style="stroke:#181818;stroke-width:1.5;" x1="40" x2="1054" y1="65.0938" y2="65.0938"/><rect fill="#F1F1F1" height="35.0938" style="stroke:#181818;stroke-width:1.5;" width="49" x="522.5" y="10"/><text fill="#000000" font-family="sans-serif" font-size="12" lengthAdjust="spacing" textLength="29" x="532.5" y="32.457">Root/</text><line style="stroke:#181818;stroke-width:1.5;" x1="547" x2="547" y1="45.0938" y2="65.0938"/><!--MD5=[553a013f4d50d99b9d4f3d44d15be05e]
@startwbs SolutionHierarchy

* Root/
** Docs.*/
** SpreadSheetApp/
** SpreadSheetEngine/
*** ArithmeticExpressionTree/
**** Components/
***** Abstract/
***** Operators/
****** EnumAttributes/
****** OpNode*
***** VarNode
***** ConstNode

*** SheetLogic/
**** Components/
***** Abstract/
****** BaseCell
***** Cell extends BaseCell
**** Sheet

** SpredSheetEngineTests/
** ExpressionTreeConsole/
** ExpressionTreeTests/

@endwbs

PlantUML version 1.2022.7(Mon Aug 22 10:01:30 PDT 2022)
(GPL source distribution)
Java Runtime: OpenJDK Runtime Environment
JVM: OpenJDK 64-Bit Server VM
Default Encoding: Cp1252
Language: en
Country: US
--></g></svg>