<?xml version="1.0" encoding="UTF-8" standalone="no"?><svg xmlns="http://www.w3.org/2000/svg" xmlns:xlink="http://www.w3.org/1999/xlink" contentStyleType="text/css" height="1103px" preserveAspectRatio="none" style="width:1497px;height:1103px;background:#FFFFFF;" version="1.1" viewBox="0 0 1497 1103" width="1497px" zoomAndPan="magnify"><defs/><g><!--MD5=[2944b4f20809bfedc28f5cbd68b83aae]
cluster UI Layer--><g id="cluster_UI Layer"><path d="M1043.5,6 L1100.5,6 A3.75,3.75 0 0 1 1103,8.5 L1110,29.6094 L1254.5,29.6094 A2.5,2.5 0 0 1 1257,32.1094 L1257,211.5 A2.5,2.5 0 0 1 1254.5,214 L1043.5,214 A2.5,2.5 0 0 1 1041,211.5 L1041,8.5 A2.5,2.5 0 0 1 1043.5,6 " fill="none" style="stroke:#000000;stroke-width:1.5;"/><line style="stroke:#000000;stroke-width:1.5;" x1="1041" x2="1110" y1="29.6094" y2="29.6094"/><text fill="#000000" font-family="sans-serif" font-size="14" font-weight="bold" lengthAdjust="spacing" textLength="56" x="1045" y="22.5332">UI Layer</text></g><!--MD5=[7362c42e912147d8e1469da43de36d45]
cluster Logic Layer--><g id="cluster_Logic Layer"><path d="M8.5,264 L89.5,264 A3.75,3.75 0 0 1 92,266.5 L99,287.6094 L1487.5,287.6094 A2.5,2.5 0 0 1 1490,290.1094 L1490,1093.5 A2.5,2.5 0 0 1 1487.5,1096 L8.5,1096 A2.5,2.5 0 0 1 6,1093.5 L6,266.5 A2.5,2.5 0 0 1 8.5,264 " fill="none" style="stroke:#000000;stroke-width:1.5;"/><line style="stroke:#000000;stroke-width:1.5;" x1="6" x2="99" y1="287.6094" y2="287.6094"/><text fill="#000000" font-family="sans-serif" font-size="14" font-weight="bold" lengthAdjust="spacing" textLength="80" x="10" y="280.5332">Logic Layer</text></g><!--MD5=[13deee7bba1140ca9d8aad9bd20b3c41]
cluster Factories--><g id="cluster_Factories"><path d="M897.5,308 L964.5,308 A3.75,3.75 0 0 1 967,310.5 L974,331.6094 L1463.5,331.6094 A2.5,2.5 0 0 1 1466,334.1094 L1466,599 A2.5,2.5 0 0 1 1463.5,601.5 L897.5,601.5 A2.5,2.5 0 0 1 895,599 L895,310.5 A2.5,2.5 0 0 1 897.5,308 " fill="none" style="stroke:#000000;stroke-width:1.5;"/><line style="stroke:#000000;stroke-width:1.5;" x1="895" x2="974" y1="331.6094" y2="331.6094"/><text fill="#000000" font-family="sans-serif" font-size="14" font-weight="bold" lengthAdjust="spacing" textLength="66" x="899" y="324.5332">Factories</text></g><!--MD5=[cb37a32aff401e508eafe76150049287]
cluster TreeNodes--><g id="cluster_TreeNodes"><path d="M172.5,345.5 L250.5,345.5 A3.75,3.75 0 0 1 253,348 L260,369.1094 L868.5,369.1094 A2.5,2.5 0 0 1 871,371.6094 L871,1069.5 A2.5,2.5 0 0 1 868.5,1072 L172.5,1072 A2.5,2.5 0 0 1 170,1069.5 L170,348 A2.5,2.5 0 0 1 172.5,345.5 " fill="none" style="stroke:#000000;stroke-width:1.5;"/><line style="stroke:#000000;stroke-width:1.5;" x1="170" x2="260" y1="369.1094" y2="369.1094"/><text fill="#000000" font-family="sans-serif" font-size="14" font-weight="bold" lengthAdjust="spacing" textLength="77" x="174" y="362.0332">TreeNodes</text></g><!--MD5=[c668094844ae645a8b3be0d2e77a7458]
cluster Base Ops--><g id="cluster_Base Ops"><path d="M332.5,910 L400.5,910 A3.75,3.75 0 0 1 403,912.5 L410,933.6094 L844.5,933.6094 A2.5,2.5 0 0 1 847,936.1094 L847,1045.5 A2.5,2.5 0 0 1 844.5,1048 L332.5,1048 A2.5,2.5 0 0 1 330,1045.5 L330,912.5 A2.5,2.5 0 0 1 332.5,910 " fill="none" style="stroke:#000000;stroke-width:1.5;"/><line style="stroke:#000000;stroke-width:1.5;" x1="330" x2="410" y1="933.6094" y2="933.6094"/><text fill="#000000" font-family="sans-serif" font-size="14" font-weight="bold" lengthAdjust="spacing" textLength="67" x="334" y="926.5332">Base Ops</text></g><!--MD5=[714a68a9ae4c3620a9773c0fb02cacbc]
class ExpressionTreeConsole--><g id="elem_ExpressionTreeConsole"><rect codeLine="3" fill="#F1F1F1" height="136.0469" id="ExpressionTreeConsole" rx="2.5" ry="2.5" style="stroke:#181818;stroke-width:0.5;" width="183" x="1057.5" y="62"/><ellipse cx="1072.5" cy="78" fill="#ADD1B2" rx="11" ry="11" style="stroke:#181818;stroke-width:1.0;"/><path d="M1075.2656,73.875 Q1075.4219,73.6563 1075.6094,73.5469 Q1075.7969,73.4375 1076.0156,73.4375 Q1076.3906,73.4375 1076.625,73.7031 Q1076.8594,73.9531 1076.8594,74.5625 L1076.8594,76.0156 Q1076.8594,76.625 1076.625,76.8906 Q1076.3906,77.1563 1076.0156,77.1563 Q1075.6719,77.1563 1075.4688,76.9531 Q1075.2656,76.7656 1075.1563,76.25 Q1075.1094,75.8906 1074.9219,75.7031 Q1074.5938,75.3281 1073.9844,75.1094 Q1073.375,74.8906 1072.75,74.8906 Q1071.9844,74.8906 1071.3438,75.2188 Q1070.7188,75.5469 1070.2188,76.2969 Q1069.7344,77.0469 1069.7344,78.0781 L1069.7344,79.1719 Q1069.7344,80.4063 1070.625,81.2344 Q1071.5156,82.0469 1073.1094,82.0469 Q1074.0469,82.0469 1074.7031,81.7969 Q1075.0938,81.6406 1075.5156,81.2031 Q1075.7813,80.9375 1075.9219,80.8594 Q1076.0781,80.7813 1076.2813,80.7813 Q1076.6094,80.7813 1076.8594,81.0469 Q1077.125,81.2969 1077.125,81.6406 Q1077.125,81.9844 1076.7813,82.3906 Q1076.2813,82.9688 1075.4844,83.2969 Q1074.4063,83.75 1073.1094,83.75 Q1071.5938,83.75 1070.3906,83.125 Q1069.4063,82.625 1068.7188,81.5625 Q1068.0313,80.4844 1068.0313,79.2031 L1068.0313,78.0469 Q1068.0313,76.7188 1068.6406,75.5781 Q1069.2656,74.4219 1070.3594,73.8125 Q1071.4531,73.1875 1072.6875,73.1875 Q1073.4219,73.1875 1074.0625,73.3594 Q1074.7188,73.5156 1075.2656,73.875 Z " fill="#000000"/><text fill="#000000" font-family="sans-serif" font-size="14" lengthAdjust="spacing" textLength="151" x="1086.5" y="83.7285">ExpressionTreeConsole</text><line style="stroke:#181818;stroke-width:0.5;" x1="1058.5" x2="1239.5" y1="94" y2="94"/><ellipse cx="1068.5" cy="108.3047" fill="none" rx="3" ry="3" style="stroke:#038048;stroke-width:1.0;"/><text fill="#000000" font-family="sans-serif" font-size="14" lengthAdjust="spacing" textLength="132" x="1077.5" y="112.5332">tree: ExpressionTree</text><ellipse cx="1068.5" cy="125.9141" fill="none" rx="3" ry="3" style="stroke:#038048;stroke-width:1.0;"/><text fill="#000000" font-family="sans-serif" font-size="14" lengthAdjust="spacing" textLength="83" x="1077.5" y="130.1426">postfix: string</text><line style="stroke:#181818;stroke-width:0.5;" x1="1058.5" x2="1239.5" y1="137.2188" y2="137.2188"/><ellipse cx="1068.5" cy="151.5234" fill="#84BE84" rx="3" ry="3" style="stroke:#038048;stroke-width:1.0;"/><text fill="#000000" font-family="sans-serif" font-size="14" lengthAdjust="spacing" textLength="74" x="1077.5" y="155.752">PrintMenu()</text><ellipse cx="1068.5" cy="169.1328" fill="#84BE84" rx="3" ry="3" style="stroke:#038048;stroke-width:1.0;"/><text fill="#000000" font-family="sans-serif" font-size="14" lengthAdjust="spacing" textLength="64" x="1077.5" y="173.3613">GetInput()</text><ellipse cx="1068.5" cy="186.7422" fill="#84BE84" rx="3" ry="3" style="stroke:#038048;stroke-width:1.0;"/><text fill="#000000" font-family="sans-serif" font-size="14" lengthAdjust="spacing" textLength="137" x="1077.5" y="190.9707">ExecuteMenuOption()</text></g><!--MD5=[8cb4c2ca178ea535352ead05abf4bd0f]
class ExpressionTree--><g id="elem_ExpressionTree"><rect codeLine="15" fill="#F1F1F1" height="48" id="ExpressionTree" rx="2.5" ry="2.5" style="stroke:#181818;stroke-width:0.5;" width="131" x="22.5" y="390.5"/><ellipse cx="37.5" cy="406.5" fill="#ADD1B2" rx="11" ry="11" style="stroke:#181818;stroke-width:1.0;"/><path d="M40.2656,402.375 Q40.4219,402.1563 40.6094,402.0469 Q40.7969,401.9375 41.0156,401.9375 Q41.3906,401.9375 41.625,402.2031 Q41.8594,402.4531 41.8594,403.0625 L41.8594,404.5156 Q41.8594,405.125 41.625,405.3906 Q41.3906,405.6563 41.0156,405.6563 Q40.6719,405.6563 40.4688,405.4531 Q40.2656,405.2656 40.1563,404.75 Q40.1094,404.3906 39.9219,404.2031 Q39.5938,403.8281 38.9844,403.6094 Q38.375,403.3906 37.75,403.3906 Q36.9844,403.3906 36.3438,403.7188 Q35.7188,404.0469 35.2188,404.7969 Q34.7344,405.5469 34.7344,406.5781 L34.7344,407.6719 Q34.7344,408.9063 35.625,409.7344 Q36.5156,410.5469 38.1094,410.5469 Q39.0469,410.5469 39.7031,410.2969 Q40.0938,410.1406 40.5156,409.7031 Q40.7813,409.4375 40.9219,409.3594 Q41.0781,409.2813 41.2813,409.2813 Q41.6094,409.2813 41.8594,409.5469 Q42.125,409.7969 42.125,410.1406 Q42.125,410.4844 41.7813,410.8906 Q41.2813,411.4688 40.4844,411.7969 Q39.4063,412.25 38.1094,412.25 Q36.5938,412.25 35.3906,411.625 Q34.4063,411.125 33.7188,410.0625 Q33.0313,408.9844 33.0313,407.7031 L33.0313,406.5469 Q33.0313,405.2188 33.6406,404.0781 Q34.2656,402.9219 35.3594,402.3125 Q36.4531,401.6875 37.6875,401.6875 Q38.4219,401.6875 39.0625,401.8594 Q39.7188,402.0156 40.2656,402.375 Z " fill="#000000"/><text fill="#000000" font-family="sans-serif" font-size="14" lengthAdjust="spacing" textLength="99" x="51.5" y="412.2285">ExpressionTree</text><line style="stroke:#181818;stroke-width:0.5;" x1="23.5" x2="152.5" y1="422.5" y2="422.5"/><line style="stroke:#181818;stroke-width:0.5;" x1="23.5" x2="152.5" y1="430.5" y2="430.5"/></g><!--MD5=[409004911d09e289171b65edc8c53663]
class ExpressionTreeFactory--><g id="elem_ExpressionTreeFactory"><rect codeLine="19" fill="#F1F1F1" height="48" id="ExpressionTreeFactory" rx="2.5" ry="2.5" style="stroke:#181818;stroke-width:0.5;" width="179" x="1059.5" y="390.5"/><ellipse cx="1074.5" cy="406.5" fill="#ADD1B2" rx="11" ry="11" style="stroke:#181818;stroke-width:1.0;"/><path d="M1077.2656,402.375 Q1077.4219,402.1563 1077.6094,402.0469 Q1077.7969,401.9375 1078.0156,401.9375 Q1078.3906,401.9375 1078.625,402.2031 Q1078.8594,402.4531 1078.8594,403.0625 L1078.8594,404.5156 Q1078.8594,405.125 1078.625,405.3906 Q1078.3906,405.6563 1078.0156,405.6563 Q1077.6719,405.6563 1077.4688,405.4531 Q1077.2656,405.2656 1077.1563,404.75 Q1077.1094,404.3906 1076.9219,404.2031 Q1076.5938,403.8281 1075.9844,403.6094 Q1075.375,403.3906 1074.75,403.3906 Q1073.9844,403.3906 1073.3438,403.7188 Q1072.7188,404.0469 1072.2188,404.7969 Q1071.7344,405.5469 1071.7344,406.5781 L1071.7344,407.6719 Q1071.7344,408.9063 1072.625,409.7344 Q1073.5156,410.5469 1075.1094,410.5469 Q1076.0469,410.5469 1076.7031,410.2969 Q1077.0938,410.1406 1077.5156,409.7031 Q1077.7813,409.4375 1077.9219,409.3594 Q1078.0781,409.2813 1078.2813,409.2813 Q1078.6094,409.2813 1078.8594,409.5469 Q1079.125,409.7969 1079.125,410.1406 Q1079.125,410.4844 1078.7813,410.8906 Q1078.2813,411.4688 1077.4844,411.7969 Q1076.4063,412.25 1075.1094,412.25 Q1073.5938,412.25 1072.3906,411.625 Q1071.4063,411.125 1070.7188,410.0625 Q1070.0313,408.9844 1070.0313,407.7031 L1070.0313,406.5469 Q1070.0313,405.2188 1070.6406,404.0781 Q1071.2656,402.9219 1072.3594,402.3125 Q1073.4531,401.6875 1074.6875,401.6875 Q1075.4219,401.6875 1076.0625,401.8594 Q1076.7188,402.0156 1077.2656,402.375 Z " fill="#000000"/><text fill="#000000" font-family="sans-serif" font-size="14" lengthAdjust="spacing" textLength="147" x="1088.5" y="412.2285">ExpressionTreeFactory</text><line style="stroke:#181818;stroke-width:0.5;" x1="1060.5" x2="1237.5" y1="422.5" y2="422.5"/><line style="stroke:#181818;stroke-width:0.5;" x1="1060.5" x2="1237.5" y1="430.5" y2="430.5"/></g><g id="elem_GMN8"><path d="M911.5,559.5 L911.5,585.8516 A0,0 0 0 0 911.5,585.8516 L1144.5,585.8516 A0,0 0 0 0 1144.5,585.8516 L1144.5,569.5 L1134.5,559.5 L1041.48,559.5 L1131.15,438.52 L1033.48,559.5 L911.5,559.5 A0,0 0 0 0 911.5,559.5 " fill="#FEFFDD" style="stroke:#181818;stroke-width:0.5;"/><path d="M1134.5,559.5 L1134.5,569.5 L1144.5,569.5 L1134.5,559.5 " fill="#FEFFDD" style="stroke:#181818;stroke-width:0.5;"/><text fill="#000000" font-family="sans-serif" font-size="13" lengthAdjust="spacing" textLength="212" x="917.5" y="577.9951">from a string postfix, produces a tree</text></g><!--MD5=[76b945106c09024002b93e059b4735e7]
class PostfixFactory--><g id="elem_PostfixFactory"><rect codeLine="30" fill="#F1F1F1" height="100.8281" id="PostfixFactory" rx="2.5" ry="2.5" style="stroke:#181818;stroke-width:0.5;" width="121" x="1273.5" y="364"/><ellipse cx="1288.5" cy="380" fill="#ADD1B2" rx="11" ry="11" style="stroke:#181818;stroke-width:1.0;"/><path d="M1291.2656,375.875 Q1291.4219,375.6563 1291.6094,375.5469 Q1291.7969,375.4375 1292.0156,375.4375 Q1292.3906,375.4375 1292.625,375.7031 Q1292.8594,375.9531 1292.8594,376.5625 L1292.8594,378.0156 Q1292.8594,378.625 1292.625,378.8906 Q1292.3906,379.1563 1292.0156,379.1563 Q1291.6719,379.1563 1291.4688,378.9531 Q1291.2656,378.7656 1291.1563,378.25 Q1291.1094,377.8906 1290.9219,377.7031 Q1290.5938,377.3281 1289.9844,377.1094 Q1289.375,376.8906 1288.75,376.8906 Q1287.9844,376.8906 1287.3438,377.2188 Q1286.7188,377.5469 1286.2188,378.2969 Q1285.7344,379.0469 1285.7344,380.0781 L1285.7344,381.1719 Q1285.7344,382.4063 1286.625,383.2344 Q1287.5156,384.0469 1289.1094,384.0469 Q1290.0469,384.0469 1290.7031,383.7969 Q1291.0938,383.6406 1291.5156,383.2031 Q1291.7813,382.9375 1291.9219,382.8594 Q1292.0781,382.7813 1292.2813,382.7813 Q1292.6094,382.7813 1292.8594,383.0469 Q1293.125,383.2969 1293.125,383.6406 Q1293.125,383.9844 1292.7813,384.3906 Q1292.2813,384.9688 1291.4844,385.2969 Q1290.4063,385.75 1289.1094,385.75 Q1287.5938,385.75 1286.3906,385.125 Q1285.4063,384.625 1284.7188,383.5625 Q1284.0313,382.4844 1284.0313,381.2031 L1284.0313,380.0469 Q1284.0313,378.7188 1284.6406,377.5781 Q1285.2656,376.4219 1286.3594,375.8125 Q1287.4531,375.1875 1288.6875,375.1875 Q1289.4219,375.1875 1290.0625,375.3594 Q1290.7188,375.5156 1291.2656,375.875 Z " fill="#000000"/><text fill="#000000" font-family="sans-serif" font-size="14" lengthAdjust="spacing" textLength="89" x="1302.5" y="385.7285">PostfixFactory</text><line style="stroke:#181818;stroke-width:0.5;" x1="1274.5" x2="1393.5" y1="396" y2="396"/><rect fill="none" height="6" style="stroke:#C82930;stroke-width:1.0;" width="6" x="1281.5" y="407.3047"/><text fill="#000000" font-family="sans-serif" font-size="14" lengthAdjust="spacing" textLength="67" x="1293.5" y="414.5332">infix: string</text><ellipse cx="1284.5" cy="427.9141" fill="none" rx="3" ry="3" style="stroke:#038048;stroke-width:1.0;"/><text fill="#000000" font-family="sans-serif" font-size="14" lengthAdjust="spacing" textLength="83" x="1293.5" y="432.1426">postfix: string</text><line style="stroke:#181818;stroke-width:0.5;" x1="1274.5" x2="1393.5" y1="439.2188" y2="439.2188"/><polygon fill="#4177AF" points="1284.5,449.5234,1280.5,455.5234,1288.5,455.5234" style="stroke:#1963A0;stroke-width:1.0;"/><text fill="#000000" font-family="sans-serif" font-size="14" lengthAdjust="spacing" textLength="90" x="1293.5" y="457.752">MakePostFix()</text></g><g id="elem_GMN12"><path d="M1180,559.5 L1180,585.8516 A0,0 0 0 0 1180,585.8516 L1450,585.8516 A0,0 0 0 0 1450,585.8516 L1450,569.5 L1440,559.5 L1320.47,559.5 L1327.94,465.29 L1312.47,559.5 L1180,559.5 A0,0 0 0 0 1180,559.5 " fill="#FEFFDD" style="stroke:#181818;stroke-width:0.5;"/><path d="M1440,559.5 L1440,569.5 L1450,569.5 L1440,559.5 " fill="#FEFFDD" style="stroke:#181818;stroke-width:0.5;"/><text fill="#000000" font-family="sans-serif" font-size="13" lengthAdjust="spacing" textLength="249" x="1186" y="577.9951">from a string infix, produces a string postfix</text></g><!--MD5=[efc390f5ad439e62fbb1d1b45f02c73d]
class NodeFactory--><g id="elem_NodeFactory"><rect codeLine="22" fill="#F1F1F1" height="48" id="NodeFactory" rx="2.5" ry="2.5" style="stroke:#181818;stroke-width:0.5;" width="113" x="911.5" y="390.5"/><ellipse cx="926.5" cy="406.5" fill="#ADD1B2" rx="11" ry="11" style="stroke:#181818;stroke-width:1.0;"/><path d="M929.2656,402.375 Q929.4219,402.1563 929.6094,402.0469 Q929.7969,401.9375 930.0156,401.9375 Q930.3906,401.9375 930.625,402.2031 Q930.8594,402.4531 930.8594,403.0625 L930.8594,404.5156 Q930.8594,405.125 930.625,405.3906 Q930.3906,405.6563 930.0156,405.6563 Q929.6719,405.6563 929.4688,405.4531 Q929.2656,405.2656 929.1563,404.75 Q929.1094,404.3906 928.9219,404.2031 Q928.5938,403.8281 927.9844,403.6094 Q927.375,403.3906 926.75,403.3906 Q925.9844,403.3906 925.3438,403.7188 Q924.7188,404.0469 924.2188,404.7969 Q923.7344,405.5469 923.7344,406.5781 L923.7344,407.6719 Q923.7344,408.9063 924.625,409.7344 Q925.5156,410.5469 927.1094,410.5469 Q928.0469,410.5469 928.7031,410.2969 Q929.0938,410.1406 929.5156,409.7031 Q929.7813,409.4375 929.9219,409.3594 Q930.0781,409.2813 930.2813,409.2813 Q930.6094,409.2813 930.8594,409.5469 Q931.125,409.7969 931.125,410.1406 Q931.125,410.4844 930.7813,410.8906 Q930.2813,411.4688 929.4844,411.7969 Q928.4063,412.25 927.1094,412.25 Q925.5938,412.25 924.3906,411.625 Q923.4063,411.125 922.7188,410.0625 Q922.0313,408.9844 922.0313,407.7031 L922.0313,406.5469 Q922.0313,405.2188 922.6406,404.0781 Q923.2656,402.9219 924.3594,402.3125 Q925.4531,401.6875 926.6875,401.6875 Q927.4219,401.6875 928.0625,401.8594 Q928.7188,402.0156 929.2656,402.375 Z " fill="#000000"/><text fill="#000000" font-family="sans-serif" font-size="14" lengthAdjust="spacing" textLength="81" x="940.5" y="412.2285">NodeFactory</text><line style="stroke:#181818;stroke-width:0.5;" x1="912.5" x2="1023.5" y1="422.5" y2="422.5"/><line style="stroke:#181818;stroke-width:0.5;" x1="912.5" x2="1023.5" y1="430.5" y2="430.5"/></g><!--MD5=[3fee75583bb7a64f68d843a3c9534ab3]
class Node--><g id="elem_Node"><rect codeLine="41" fill="#F1F1F1" height="58.7031" id="Node" rx="2.5" ry="2.5" style="stroke:#181818;stroke-width:0.5;" width="84" x="556" y="543"/><ellipse cx="571" cy="564.3516" fill="#A9DCDF" rx="11" ry="11" style="stroke:#181818;stroke-width:1.0;"/><path d="M573.1875,566.1172 L569.0469,566.1172 L568.625,567.1484 L569.0469,567.1484 Q569.6563,567.1484 569.9219,567.3828 Q570.1875,567.6172 570.1875,568.0078 Q570.1875,568.3828 569.9219,568.6172 Q569.6563,568.8516 569.0469,568.8516 L566.75,568.8516 Q566.1406,568.8516 565.8906,568.6172 Q565.625,568.3828 565.625,567.9922 Q565.625,567.6172 565.9063,567.3828 Q566.1719,567.1328 566.7969,567.1484 L569.4688,560.4922 L568.3594,560.4922 Q567.75,560.4922 567.4844,560.2578 Q567.2188,560.0234 567.2188,559.6328 Q567.2188,559.2578 567.4844,559.0234 Q567.75,558.7891 568.3594,558.7891 L572.0313,558.7891 L575.4219,567.1484 Q576.0156,567.1484 576.2031,567.2891 Q576.5938,567.5547 576.5938,568.0078 Q576.5938,568.3828 576.3281,568.6172 Q576.0781,568.8516 575.4688,568.8516 L573.1719,568.8516 Q572.5625,568.8516 572.2969,568.6172 Q572.0313,568.3828 572.0313,567.9922 Q572.0313,567.6172 572.2969,567.3828 Q572.5625,567.1484 573.1719,567.1484 L573.5938,567.1484 L573.1875,566.1172 Z M572.4688,564.4141 L571.1094,561.0391 L569.7344,564.4141 L572.4688,564.4141 Z " fill="#000000"/><text fill="#000000" font-family="sans-serif" font-size="12" font-style="italic" lengthAdjust="spacing" textLength="56" x="583" y="560.457">«general»</text><text fill="#000000" font-family="sans-serif" font-size="14" font-style="italic" lengthAdjust="spacing" textLength="34" x="594" y="577.627">Node</text><line style="stroke:#181818;stroke-width:0.5;" x1="557" x2="639" y1="585.7031" y2="585.7031"/><line style="stroke:#181818;stroke-width:0.5;" x1="557" x2="639" y1="593.7031" y2="593.7031"/></g><g id="elem_GMN25"><path d="M537,401.5 L537,427.8516 A0,0 0 0 0 537,427.8516 L594,427.8516 L598,542.9 L602,427.8516 L659,427.8516 A0,0 0 0 0 659,427.8516 L659,411.5 L649,401.5 L537,401.5 A0,0 0 0 0 537,401.5 " fill="#FEFFDD" style="stroke:#181818;stroke-width:0.5;"/><path d="M649,401.5 L649,411.5 L659,411.5 L649,401.5 " fill="#FEFFDD" style="stroke:#181818;stroke-width:0.5;"/><text fill="#000000" font-family="sans-serif" font-size="13" lengthAdjust="spacing" textLength="101" x="543" y="419.9951">a node in the tree</text></g><!--MD5=[b4bde2bf544bd7fdebe716548cf0a9dd]
class MyOpNode--><g id="elem_MyOpNode"><rect codeLine="94" fill="#F1F1F1" height="58.7031" id="MyOpNode" rx="2.5" ry="2.5" style="stroke:#181818;stroke-width:0.5;" width="107" x="204.5" y="969.5"/><ellipse cx="219.5" cy="990.8516" fill="#ADD1B2" rx="11" ry="11" style="stroke:#181818;stroke-width:1.0;"/><path d="M222.2656,986.7266 Q222.4219,986.5078 222.6094,986.3984 Q222.7969,986.2891 223.0156,986.2891 Q223.3906,986.2891 223.625,986.5547 Q223.8594,986.8047 223.8594,987.4141 L223.8594,988.8672 Q223.8594,989.4766 223.625,989.7422 Q223.3906,990.0078 223.0156,990.0078 Q222.6719,990.0078 222.4688,989.8047 Q222.2656,989.6172 222.1563,989.1016 Q222.1094,988.7422 221.9219,988.5547 Q221.5938,988.1797 220.9844,987.9609 Q220.375,987.7422 219.75,987.7422 Q218.9844,987.7422 218.3438,988.0703 Q217.7188,988.3984 217.2188,989.1484 Q216.7344,989.8984 216.7344,990.9297 L216.7344,992.0234 Q216.7344,993.2578 217.625,994.0859 Q218.5156,994.8984 220.1094,994.8984 Q221.0469,994.8984 221.7031,994.6484 Q222.0938,994.4922 222.5156,994.0547 Q222.7813,993.7891 222.9219,993.7109 Q223.0781,993.6328 223.2813,993.6328 Q223.6094,993.6328 223.8594,993.8984 Q224.125,994.1484 224.125,994.4922 Q224.125,994.8359 223.7813,995.2422 Q223.2813,995.8203 222.4844,996.1484 Q221.4063,996.6016 220.1094,996.6016 Q218.5938,996.6016 217.3906,995.9766 Q216.4063,995.4766 215.7188,994.4141 Q215.0313,993.3359 215.0313,992.0547 L215.0313,990.8984 Q215.0313,989.5703 215.6406,988.4297 Q216.2656,987.2734 217.3594,986.6641 Q218.4531,986.0391 219.6875,986.0391 Q220.4219,986.0391 221.0625,986.2109 Q221.7188,986.3672 222.2656,986.7266 Z " fill="#000000"/><text fill="#000000" font-family="sans-serif" font-size="12" font-style="italic" lengthAdjust="spacing" textLength="79" x="231.5" y="986.957">«placeholder»</text><text fill="#000000" font-family="sans-serif" font-size="14" lengthAdjust="spacing" textLength="70" x="236" y="1004.127">MyOpNode</text><line style="stroke:#181818;stroke-width:0.5;" x1="205.5" x2="310.5" y1="1012.2031" y2="1012.2031"/><line style="stroke:#181818;stroke-width:0.5;" x1="205.5" x2="310.5" y1="1020.2031" y2="1020.2031"/></g><!--MD5=[3c84933275ff1a92ade497b1e4e87ae6]
class ConstNode--><g id="elem_ConstNode"><rect codeLine="47" fill="#F1F1F1" height="65.6094" id="ConstNode" rx="2.5" ry="2.5" style="stroke:#181818;stroke-width:0.5;" width="102" x="451" y="730"/><ellipse cx="466" cy="746" fill="#ADD1B2" rx="11" ry="11" style="stroke:#181818;stroke-width:1.0;"/><path d="M468.7656,741.875 Q468.9219,741.6563 469.1094,741.5469 Q469.2969,741.4375 469.5156,741.4375 Q469.8906,741.4375 470.125,741.7031 Q470.3594,741.9531 470.3594,742.5625 L470.3594,744.0156 Q470.3594,744.625 470.125,744.8906 Q469.8906,745.1563 469.5156,745.1563 Q469.1719,745.1563 468.9688,744.9531 Q468.7656,744.7656 468.6563,744.25 Q468.6094,743.8906 468.4219,743.7031 Q468.0938,743.3281 467.4844,743.1094 Q466.875,742.8906 466.25,742.8906 Q465.4844,742.8906 464.8438,743.2188 Q464.2188,743.5469 463.7188,744.2969 Q463.2344,745.0469 463.2344,746.0781 L463.2344,747.1719 Q463.2344,748.4063 464.125,749.2344 Q465.0156,750.0469 466.6094,750.0469 Q467.5469,750.0469 468.2031,749.7969 Q468.5938,749.6406 469.0156,749.2031 Q469.2813,748.9375 469.4219,748.8594 Q469.5781,748.7813 469.7813,748.7813 Q470.1094,748.7813 470.3594,749.0469 Q470.625,749.2969 470.625,749.6406 Q470.625,749.9844 470.2813,750.3906 Q469.7813,750.9688 468.9844,751.2969 Q467.9063,751.75 466.6094,751.75 Q465.0938,751.75 463.8906,751.125 Q462.9063,750.625 462.2188,749.5625 Q461.5313,748.4844 461.5313,747.2031 L461.5313,746.0469 Q461.5313,744.7188 462.1406,743.5781 Q462.7656,742.4219 463.8594,741.8125 Q464.9531,741.1875 466.1875,741.1875 Q466.9219,741.1875 467.5625,741.3594 Q468.2188,741.5156 468.7656,741.875 Z " fill="#000000"/><text fill="#000000" font-family="sans-serif" font-size="14" lengthAdjust="spacing" textLength="70" x="480" y="751.7285">ConstNode</text><line style="stroke:#181818;stroke-width:0.5;" x1="452" x2="552" y1="762" y2="762"/><ellipse cx="462" cy="776.3047" fill="none" rx="3" ry="3" style="stroke:#038048;stroke-width:1.0;"/><text fill="#000000" font-family="sans-serif" font-size="14" lengthAdjust="spacing" textLength="59" x="471" y="780.5332">Value: int</text><line style="stroke:#181818;stroke-width:0.5;" x1="452" x2="552" y1="787.6094" y2="787.6094"/></g><g id="elem_GMN30"><path d="M335,559.5 L335,585.8516 A0,0 0 0 0 335,585.8516 L428.74,585.8516 L489.37,729.82 L436.74,585.8516 L521,585.8516 A0,0 0 0 0 521,585.8516 L521,569.5 L511,559.5 L335,559.5 A0,0 0 0 0 335,559.5 " fill="#FEFFDD" style="stroke:#181818;stroke-width:0.5;"/><path d="M511,559.5 L511,569.5 L521,569.5 L511,559.5 " fill="#FEFFDD" style="stroke:#181818;stroke-width:0.5;"/><text fill="#000000" font-family="sans-serif" font-size="13" lengthAdjust="spacing" textLength="165" x="341" y="577.9951">a node that holds a constant</text></g><!--MD5=[afc2ff5f1f5bb212a7ca2b003f7560cb]
class VarNode--><g id="elem_VarNode"><rect codeLine="52" fill="#F1F1F1" height="65.6094" id="VarNode" rx="2.5" ry="2.5" style="stroke:#181818;stroke-width:0.5;" width="105" x="749.5" y="730"/><ellipse cx="772.6" cy="746" fill="#ADD1B2" rx="11" ry="11" style="stroke:#181818;stroke-width:1.0;"/><path d="M775.3656,741.875 Q775.5219,741.6563 775.7094,741.5469 Q775.8969,741.4375 776.1156,741.4375 Q776.4906,741.4375 776.725,741.7031 Q776.9594,741.9531 776.9594,742.5625 L776.9594,744.0156 Q776.9594,744.625 776.725,744.8906 Q776.4906,745.1563 776.1156,745.1563 Q775.7719,745.1563 775.5688,744.9531 Q775.3656,744.7656 775.2563,744.25 Q775.2094,743.8906 775.0219,743.7031 Q774.6938,743.3281 774.0844,743.1094 Q773.475,742.8906 772.85,742.8906 Q772.0844,742.8906 771.4438,743.2188 Q770.8188,743.5469 770.3188,744.2969 Q769.8344,745.0469 769.8344,746.0781 L769.8344,747.1719 Q769.8344,748.4063 770.725,749.2344 Q771.6156,750.0469 773.2094,750.0469 Q774.1469,750.0469 774.8031,749.7969 Q775.1938,749.6406 775.6156,749.2031 Q775.8813,748.9375 776.0219,748.8594 Q776.1781,748.7813 776.3813,748.7813 Q776.7094,748.7813 776.9594,749.0469 Q777.225,749.2969 777.225,749.6406 Q777.225,749.9844 776.8813,750.3906 Q776.3813,750.9688 775.5844,751.2969 Q774.5063,751.75 773.2094,751.75 Q771.6938,751.75 770.4906,751.125 Q769.5063,750.625 768.8188,749.5625 Q768.1313,748.4844 768.1313,747.2031 L768.1313,746.0469 Q768.1313,744.7188 768.7406,743.5781 Q769.3656,742.4219 770.4594,741.8125 Q771.5531,741.1875 772.7875,741.1875 Q773.5219,741.1875 774.1625,741.3594 Q774.8188,741.5156 775.3656,741.875 Z " fill="#000000"/><text fill="#000000" font-family="sans-serif" font-size="14" lengthAdjust="spacing" textLength="55" x="788.4" y="751.7285">VarNode</text><line style="stroke:#181818;stroke-width:0.5;" x1="750.5" x2="853.5" y1="762" y2="762"/><ellipse cx="760.5" cy="776.3047" fill="none" rx="3" ry="3" style="stroke:#038048;stroke-width:1.0;"/><text fill="#000000" font-family="sans-serif" font-size="14" lengthAdjust="spacing" textLength="79" x="769.5" y="780.5332">Name: string</text><line style="stroke:#181818;stroke-width:0.5;" x1="750.5" x2="853.5" y1="787.6094" y2="787.6094"/></g><g id="elem_GMN34"><path d="M675.5,559.5 L675.5,585.8516 A0,0 0 0 0 675.5,585.8516 L763.37,585.8516 L795.68,729.82 L771.37,585.8516 L854.5,585.8516 A0,0 0 0 0 854.5,585.8516 L854.5,569.5 L844.5,559.5 L675.5,559.5 A0,0 0 0 0 675.5,559.5 " fill="#FEFFDD" style="stroke:#181818;stroke-width:0.5;"/><path d="M844.5,559.5 L844.5,569.5 L854.5,569.5 L844.5,559.5 " fill="#FEFFDD" style="stroke:#181818;stroke-width:0.5;"/><text fill="#000000" font-family="sans-serif" font-size="13" lengthAdjust="spacing" textLength="158" x="681.5" y="577.9951">a node that holds a variable</text></g><!--MD5=[07ae55cb0cc6575cce8064493d1d1bcc]
class OpNode--><g id="elem_OpNode"><rect codeLine="56" fill="#F1F1F1" height="199.5781" id="OpNode" rx="2.5" ry="2.5" style="stroke:#181818;stroke-width:0.5;" width="126" x="588" y="663"/><ellipse cx="611.1" cy="684.3516" fill="#A9DCDF" rx="11" ry="11" style="stroke:#181818;stroke-width:1.0;"/><path d="M613.2875,686.1172 L609.1469,686.1172 L608.725,687.1484 L609.1469,687.1484 Q609.7563,687.1484 610.0219,687.3828 Q610.2875,687.6172 610.2875,688.0078 Q610.2875,688.3828 610.0219,688.6172 Q609.7563,688.8516 609.1469,688.8516 L606.85,688.8516 Q606.2406,688.8516 605.9906,688.6172 Q605.725,688.3828 605.725,687.9922 Q605.725,687.6172 606.0063,687.3828 Q606.2719,687.1328 606.8969,687.1484 L609.5688,680.4922 L608.4594,680.4922 Q607.85,680.4922 607.5844,680.2578 Q607.3188,680.0234 607.3188,679.6328 Q607.3188,679.2578 607.5844,679.0234 Q607.85,678.7891 608.4594,678.7891 L612.1313,678.7891 L615.5219,687.1484 Q616.1156,687.1484 616.3031,687.2891 Q616.6938,687.5547 616.6938,688.0078 Q616.6938,688.3828 616.4281,688.6172 Q616.1781,688.8516 615.5688,688.8516 L613.2719,688.8516 Q612.6625,688.8516 612.3969,688.6172 Q612.1313,688.3828 612.1313,687.9922 Q612.1313,687.6172 612.3969,687.3828 Q612.6625,687.1484 613.2719,687.1484 L613.6938,687.1484 L613.2875,686.1172 Z M612.5688,684.4141 L611.2094,681.0391 L609.8344,684.4141 L612.5688,684.4141 Z " fill="#000000"/><text fill="#000000" font-family="sans-serif" font-size="12" font-style="italic" lengthAdjust="spacing" textLength="80" x="624.9" y="680.457">«generalized»</text><text fill="#000000" font-family="sans-serif" font-size="14" font-style="italic" lengthAdjust="spacing" textLength="53" x="638.4" y="697.627">OpNode</text><line style="stroke:#181818;stroke-width:0.5;" x1="589" x2="713" y1="705.7031" y2="705.7031"/><rect fill="none" height="6" style="stroke:#C82930;stroke-width:1.0;" width="6" x="596" y="717.0078"/><text fill="#000000" font-family="sans-serif" font-size="14" lengthAdjust="spacing" text-decoration="underline" textLength="90" x="608" y="724.2363">operator: char</text><rect fill="none" height="6" style="stroke:#C82930;stroke-width:1.0;" width="6" x="596" y="734.6172"/><text fill="#000000" font-family="sans-serif" font-size="14" lengthAdjust="spacing" text-decoration="underline" textLength="98" x="608" y="741.8457">precedence: int</text><rect fill="none" height="6" style="stroke:#C82930;stroke-width:1.0;" width="6" x="596" y="752.2266"/><text fill="#000000" font-family="sans-serif" font-size="14" lengthAdjust="spacing" text-decoration="underline" textLength="99" x="608" y="759.4551">associativity: int</text><ellipse cx="599" cy="772.8359" fill="none" rx="3" ry="3" style="stroke:#038048;stroke-width:1.0;"/><text fill="#000000" font-family="sans-serif" font-size="14" lengthAdjust="spacing" textLength="93" x="608" y="777.0645">Operator: char</text><ellipse cx="599" cy="790.4453" fill="none" rx="3" ry="3" style="stroke:#038048;stroke-width:1.0;"/><text fill="#000000" font-family="sans-serif" font-size="14" lengthAdjust="spacing" textLength="99" x="608" y="794.6738">Precedence: int</text><ellipse cx="599" cy="808.0547" fill="none" rx="3" ry="3" style="stroke:#038048;stroke-width:1.0;"/><text fill="#000000" font-family="sans-serif" font-size="14" lengthAdjust="spacing" textLength="100" x="608" y="812.2832">Associativity: int</text><ellipse cx="599" cy="825.6641" fill="none" rx="3" ry="3" style="stroke:#038048;stroke-width:1.0;"/><text fill="#000000" font-family="sans-serif" font-size="14" lengthAdjust="spacing" textLength="65" x="608" y="829.8926">Left: Node</text><ellipse cx="599" cy="843.2734" fill="none" rx="3" ry="3" style="stroke:#038048;stroke-width:1.0;"/><text fill="#000000" font-family="sans-serif" font-size="14" lengthAdjust="spacing" textLength="74" x="608" y="847.502">Right: Node</text><line style="stroke:#181818;stroke-width:0.5;" x1="589" x2="713" y1="854.5781" y2="854.5781"/></g><g id="elem_GMN50"><path d="M186,750 L186,776.3516 A0,0 0 0 0 186,776.3516 L294.75,776.3516 L263.27,969.32 L302.75,776.3516 L416,776.3516 A0,0 0 0 0 416,776.3516 L416,760 L406,750 L186,750 A0,0 0 0 0 186,750 " fill="#FEFFDD" style="stroke:#181818;stroke-width:0.5;"/><path d="M406,750 L406,760 L416,760 L406,750 " fill="#FEFFDD" style="stroke:#181818;stroke-width:0.5;"/><text fill="#000000" font-family="sans-serif" font-size="13" lengthAdjust="spacing" textLength="209" x="192" y="768.4951">a node that holds a custom operator</text></g><!--MD5=[add9c9cad125df75325e0c0203323858]
class Add--><g id="elem_Add"><rect codeLine="68" fill="#F1F1F1" height="65.6094" id="Add" rx="2.5" ry="2.5" style="stroke:#181818;stroke-width:0.5;" width="99" x="600.5" y="966"/><ellipse cx="634.4" cy="982" fill="#ADD1B2" rx="11" ry="11" style="stroke:#181818;stroke-width:1.0;"/><path d="M637.1656,977.875 Q637.3219,977.6563 637.5094,977.5469 Q637.6969,977.4375 637.9156,977.4375 Q638.2906,977.4375 638.525,977.7031 Q638.7594,977.9531 638.7594,978.5625 L638.7594,980.0156 Q638.7594,980.625 638.525,980.8906 Q638.2906,981.1563 637.9156,981.1563 Q637.5719,981.1563 637.3688,980.9531 Q637.1656,980.7656 637.0563,980.25 Q637.0094,979.8906 636.8219,979.7031 Q636.4938,979.3281 635.8844,979.1094 Q635.275,978.8906 634.65,978.8906 Q633.8844,978.8906 633.2438,979.2188 Q632.6188,979.5469 632.1188,980.2969 Q631.6344,981.0469 631.6344,982.0781 L631.6344,983.1719 Q631.6344,984.4063 632.525,985.2344 Q633.4156,986.0469 635.0094,986.0469 Q635.9469,986.0469 636.6031,985.7969 Q636.9938,985.6406 637.4156,985.2031 Q637.6813,984.9375 637.8219,984.8594 Q637.9781,984.7813 638.1813,984.7813 Q638.5094,984.7813 638.7594,985.0469 Q639.025,985.2969 639.025,985.6406 Q639.025,985.9844 638.6813,986.3906 Q638.1813,986.9688 637.3844,987.2969 Q636.3063,987.75 635.0094,987.75 Q633.4938,987.75 632.2906,987.125 Q631.3063,986.625 630.6188,985.5625 Q629.9313,984.4844 629.9313,983.2031 L629.9313,982.0469 Q629.9313,980.7188 630.5406,979.5781 Q631.1656,978.4219 632.2594,977.8125 Q633.3531,977.1875 634.5875,977.1875 Q635.3219,977.1875 635.9625,977.3594 Q636.6188,977.5156 637.1656,977.875 Z " fill="#000000"/><text fill="#000000" font-family="sans-serif" font-size="14" lengthAdjust="spacing" textLength="25" x="652.6" y="987.7285">Add</text><line style="stroke:#181818;stroke-width:0.5;" x1="601.5" x2="698.5" y1="998" y2="998"/><line style="stroke:#181818;stroke-width:0.5;" x1="601.5" x2="698.5" y1="1006" y2="1006"/><ellipse cx="611.5" cy="1020.3047" fill="#84BE84" rx="3" ry="3" style="stroke:#038048;stroke-width:1.0;"/><text fill="#000000" font-family="sans-serif" font-size="14" lengthAdjust="spacing" text-decoration="underline" textLength="73" x="620.5" y="1024.5332">Add('+', 10)</text></g><!--MD5=[1e0c2afbef7690ea168eeab2bc2d2b4f]
class Sub--><g id="elem_Sub"><rect codeLine="72" fill="#F1F1F1" height="65.6094" id="Sub" rx="2.5" ry="2.5" style="stroke:#181818;stroke-width:0.5;" width="96" x="735" y="966"/><ellipse cx="767.55" cy="982" fill="#ADD1B2" rx="11" ry="11" style="stroke:#181818;stroke-width:1.0;"/><path d="M770.3156,977.875 Q770.4719,977.6563 770.6594,977.5469 Q770.8469,977.4375 771.0656,977.4375 Q771.4406,977.4375 771.675,977.7031 Q771.9094,977.9531 771.9094,978.5625 L771.9094,980.0156 Q771.9094,980.625 771.675,980.8906 Q771.4406,981.1563 771.0656,981.1563 Q770.7219,981.1563 770.5188,980.9531 Q770.3156,980.7656 770.2063,980.25 Q770.1594,979.8906 769.9719,979.7031 Q769.6438,979.3281 769.0344,979.1094 Q768.425,978.8906 767.8,978.8906 Q767.0344,978.8906 766.3938,979.2188 Q765.7688,979.5469 765.2688,980.2969 Q764.7844,981.0469 764.7844,982.0781 L764.7844,983.1719 Q764.7844,984.4063 765.675,985.2344 Q766.5656,986.0469 768.1594,986.0469 Q769.0969,986.0469 769.7531,985.7969 Q770.1438,985.6406 770.5656,985.2031 Q770.8313,984.9375 770.9719,984.8594 Q771.1281,984.7813 771.3313,984.7813 Q771.6594,984.7813 771.9094,985.0469 Q772.175,985.2969 772.175,985.6406 Q772.175,985.9844 771.8313,986.3906 Q771.3313,986.9688 770.5344,987.2969 Q769.4563,987.75 768.1594,987.75 Q766.6438,987.75 765.4406,987.125 Q764.4563,986.625 763.7688,985.5625 Q763.0813,984.4844 763.0813,983.2031 L763.0813,982.0469 Q763.0813,980.7188 763.6906,979.5781 Q764.3156,978.4219 765.4094,977.8125 Q766.5031,977.1875 767.7375,977.1875 Q768.4719,977.1875 769.1125,977.3594 Q769.7688,977.5156 770.3156,977.875 Z " fill="#000000"/><text fill="#000000" font-family="sans-serif" font-size="14" lengthAdjust="spacing" textLength="25" x="785.45" y="987.7285">Sub</text><line style="stroke:#181818;stroke-width:0.5;" x1="736" x2="830" y1="998" y2="998"/><line style="stroke:#181818;stroke-width:0.5;" x1="736" x2="830" y1="1006" y2="1006"/><ellipse cx="746" cy="1020.3047" fill="#84BE84" rx="3" ry="3" style="stroke:#038048;stroke-width:1.0;"/><text fill="#000000" font-family="sans-serif" font-size="14" lengthAdjust="spacing" text-decoration="underline" textLength="70" x="755" y="1024.5332">Sub('-', 10)</text></g><!--MD5=[f59c4342f989e9db91b72115570c3ef5]
class Mul--><g id="elem_Mul"><rect codeLine="76" fill="#F1F1F1" height="65.6094" id="Mul" rx="2.5" ry="2.5" style="stroke:#181818;stroke-width:0.5;" width="93" x="346.5" y="966"/><ellipse cx="379.05" cy="982" fill="#ADD1B2" rx="11" ry="11" style="stroke:#181818;stroke-width:1.0;"/><path d="M381.8156,977.875 Q381.9719,977.6563 382.1594,977.5469 Q382.3469,977.4375 382.5656,977.4375 Q382.9406,977.4375 383.175,977.7031 Q383.4094,977.9531 383.4094,978.5625 L383.4094,980.0156 Q383.4094,980.625 383.175,980.8906 Q382.9406,981.1563 382.5656,981.1563 Q382.2219,981.1563 382.0188,980.9531 Q381.8156,980.7656 381.7063,980.25 Q381.6594,979.8906 381.4719,979.7031 Q381.1438,979.3281 380.5344,979.1094 Q379.925,978.8906 379.3,978.8906 Q378.5344,978.8906 377.8938,979.2188 Q377.2688,979.5469 376.7688,980.2969 Q376.2844,981.0469 376.2844,982.0781 L376.2844,983.1719 Q376.2844,984.4063 377.175,985.2344 Q378.0656,986.0469 379.6594,986.0469 Q380.5969,986.0469 381.2531,985.7969 Q381.6438,985.6406 382.0656,985.2031 Q382.3313,984.9375 382.4719,984.8594 Q382.6281,984.7813 382.8313,984.7813 Q383.1594,984.7813 383.4094,985.0469 Q383.675,985.2969 383.675,985.6406 Q383.675,985.9844 383.3313,986.3906 Q382.8313,986.9688 382.0344,987.2969 Q380.9563,987.75 379.6594,987.75 Q378.1438,987.75 376.9406,987.125 Q375.9563,986.625 375.2688,985.5625 Q374.5813,984.4844 374.5813,983.2031 L374.5813,982.0469 Q374.5813,980.7188 375.1906,979.5781 Q375.8156,978.4219 376.9094,977.8125 Q378.0031,977.1875 379.2375,977.1875 Q379.9719,977.1875 380.6125,977.3594 Q381.2688,977.5156 381.8156,977.875 Z " fill="#000000"/><text fill="#000000" font-family="sans-serif" font-size="14" lengthAdjust="spacing" textLength="22" x="396.95" y="987.7285">Mul</text><line style="stroke:#181818;stroke-width:0.5;" x1="347.5" x2="438.5" y1="998" y2="998"/><line style="stroke:#181818;stroke-width:0.5;" x1="347.5" x2="438.5" y1="1006" y2="1006"/><ellipse cx="357.5" cy="1020.3047" fill="#84BE84" rx="3" ry="3" style="stroke:#038048;stroke-width:1.0;"/><text fill="#000000" font-family="sans-serif" font-size="14" lengthAdjust="spacing" text-decoration="underline" textLength="67" x="366.5" y="1024.5332">Mul('*', 11)</text></g><!--MD5=[22464283798a88e4783f6c4448bc51be]
class Div--><g id="elem_Div"><rect codeLine="80" fill="#F1F1F1" height="65.6094" id="Div" rx="2.5" ry="2.5" style="stroke:#181818;stroke-width:0.5;" width="90" x="475" y="966"/><ellipse cx="507.1" cy="982" fill="#ADD1B2" rx="11" ry="11" style="stroke:#181818;stroke-width:1.0;"/><path d="M509.8656,977.875 Q510.0219,977.6563 510.2094,977.5469 Q510.3969,977.4375 510.6156,977.4375 Q510.9906,977.4375 511.225,977.7031 Q511.4594,977.9531 511.4594,978.5625 L511.4594,980.0156 Q511.4594,980.625 511.225,980.8906 Q510.9906,981.1563 510.6156,981.1563 Q510.2719,981.1563 510.0688,980.9531 Q509.8656,980.7656 509.7563,980.25 Q509.7094,979.8906 509.5219,979.7031 Q509.1938,979.3281 508.5844,979.1094 Q507.975,978.8906 507.35,978.8906 Q506.5844,978.8906 505.9438,979.2188 Q505.3188,979.5469 504.8188,980.2969 Q504.3344,981.0469 504.3344,982.0781 L504.3344,983.1719 Q504.3344,984.4063 505.225,985.2344 Q506.1156,986.0469 507.7094,986.0469 Q508.6469,986.0469 509.3031,985.7969 Q509.6938,985.6406 510.1156,985.2031 Q510.3813,984.9375 510.5219,984.8594 Q510.6781,984.7813 510.8813,984.7813 Q511.2094,984.7813 511.4594,985.0469 Q511.725,985.2969 511.725,985.6406 Q511.725,985.9844 511.3813,986.3906 Q510.8813,986.9688 510.0844,987.2969 Q509.0063,987.75 507.7094,987.75 Q506.1938,987.75 504.9906,987.125 Q504.0063,986.625 503.3188,985.5625 Q502.6313,984.4844 502.6313,983.2031 L502.6313,982.0469 Q502.6313,980.7188 503.2406,979.5781 Q503.8656,978.4219 504.9594,977.8125 Q506.0531,977.1875 507.2875,977.1875 Q508.0219,977.1875 508.6625,977.3594 Q509.3188,977.5156 509.8656,977.875 Z " fill="#000000"/><text fill="#000000" font-family="sans-serif" font-size="14" lengthAdjust="spacing" textLength="20" x="524.9" y="987.7285">Div</text><line style="stroke:#181818;stroke-width:0.5;" x1="476" x2="564" y1="998" y2="998"/><line style="stroke:#181818;stroke-width:0.5;" x1="476" x2="564" y1="1006" y2="1006"/><ellipse cx="486" cy="1020.3047" fill="#84BE84" rx="3" ry="3" style="stroke:#038048;stroke-width:1.0;"/><text fill="#000000" font-family="sans-serif" font-size="14" lengthAdjust="spacing" text-decoration="underline" textLength="64" x="495" y="1024.5332">Div('/', 11)</text></g><!--MD5=[686786ac76968bea22204c7b8469c482]
link ExpressionTreeConsole to ExpressionTreeFactory--><g id="link_ExpressionTreeConsole_ExpressionTreeFactory"><path codeLine="24" d="M1149,198.31 C1149,257.9 1149,341.95 1149,385.26 " fill="none" id="ExpressionTreeConsole-to-ExpressionTreeFactory" style="stroke:#181818;stroke-width:1.0;stroke-dasharray:7.0,7.0;"/><polygon fill="#181818" points="1149,390.33,1153,381.33,1149,385.33,1145,381.33,1149,390.33" style="stroke:#181818;stroke-width:1.0;"/></g><!--MD5=[abd21228e8f91aa3c49e0a53b2e0944f]
link ExpressionTreeConsole to PostfixFactory--><g id="link_ExpressionTreeConsole_PostfixFactory"><path codeLine="25" d="M1211.92,198.33 C1227.28,216.37 1243.01,236.34 1256,256 C1277.48,288.5 1296.93,327.76 1311.04,358.95 " fill="none" id="ExpressionTreeConsole-to-PostfixFactory" style="stroke:#181818;stroke-width:1.0;stroke-dasharray:7.0,7.0;"/><polygon fill="#181818" points="1313.26,363.88,1313.2029,354.0313,1311.2028,359.3228,1305.9113,357.3228,1313.26,363.88" style="stroke:#181818;stroke-width:1.0;"/></g><!--MD5=[73be168167abb4fcd61c2081e21fed25]
link ExpressionTreeConsole to ExpressionTree--><g id="link_ExpressionTreeConsole_ExpressionTree"><path codeLine="26" d="M1057.45,131.82 C842.09,135.42 310.93,154.64 170,256 C129.21,285.34 107.12,341.16 96.45,377.85 " fill="none" id="ExpressionTreeConsole-to-ExpressionTree" style="stroke:#181818;stroke-width:1.0;"/><polygon fill="none" points="93.03,390.42,98.4655,385.6813,96.1818,378.8413,90.7464,383.58,93.03,390.42" style="stroke:#181818;stroke-width:1.0;"/></g><!--MD5=[8279250765f36b5bf0307fe198663d46]
link ExpressionTreeFactory to ExpressionTree--><g id="link_ExpressionTreeFactory_ExpressionTree"><path codeLine="27" d="M1138.59,390.29 C1123.02,357.57 1090.23,300.58 1042,277 C954.96,234.44 254.25,229.15 170,277 C127.22,301.3 104.4,357.73 94.39,390.24 " fill="none" id="ExpressionTreeFactory-ExpressionTree" style="stroke:#181818;stroke-width:1.0;"/><text fill="#000000" font-family="sans-serif" font-size="13" lengthAdjust="spacing" textLength="43" x="343.5" y="244.4951">creates</text></g><!--MD5=[09b9cfc93d8614e96a9f78ce260d1798]
link ExpressionTree to NodeFactory--><g id="link_ExpressionTree_NodeFactory"><path codeLine="28" d="M94.39,390.24 C104.4,357.73 127.22,301.3 170,277 C237.73,238.53 801.85,241.16 871,277 C914.88,299.74 943.13,352.48 957.24,385.63 " fill="none" id="ExpressionTree-to-NodeFactory" style="stroke:#181818;stroke-width:1.0;"/><polygon fill="#181818" points="959.22,390.37,959.4659,380.5242,957.304,385.7517,952.0766,383.5898,959.22,390.37" style="stroke:#181818;stroke-width:1.0;"/><text fill="#000000" font-family="sans-serif" font-size="13" lengthAdjust="spacing" textLength="21" x="547.5" y="244.4951">use</text></g><!--MD5=[6dbc8b20f0358b27d3c73f3cc55dbb2f]
link ExpressionTree to Node--><g id="link_ExpressionTree_Node"><path codeLine="37" d="M120.59,438.63 C135.13,448.02 152.83,458.23 170,465 C325.93,526.51 380.37,488.82 539,543 C540.57,543.54 542.16,544.11 543.75,544.7 " fill="none" id="ExpressionTree-to-Node" style="stroke:#181818;stroke-width:1.0;"/><polygon fill="#181818" points="555.98,549.69,551.9385,543.7179,544.8713,545.1515,548.9128,551.1237,555.98,549.69" style="stroke:#181818;stroke-width:1.0;"/></g><!--MD5=[e3855f4555d0c384258efdf475ace975]
link NodeFactory to Node--><g id="link_NodeFactory_Node"><path codeLine="38" d="M925.56,438.56 C908.78,447.31 889.19,457.06 871,465 C778.6,505.32 750.96,504 658,543 C652.15,545.45 646.05,548.17 640.06,550.92 " fill="none" id="NodeFactory-Node" style="stroke:#181818;stroke-width:1.0;"/><text fill="#000000" font-family="sans-serif" font-size="13" lengthAdjust="spacing" textLength="43" x="791" y="509.4951">creates</text></g><!--MD5=[e0025858e2c349949333335598607af6]
reverse link Node to ConstNode--><g id="link_Node_ConstNode"><path codeLine="84" d="M574.19,620.25 C556.8,654.41 533.67,699.82 518.33,729.94 " fill="none" id="Node-backto-ConstNode" style="stroke:#181818;stroke-width:1.0;"/><polygon fill="none" points="568.11,616.77,583.42,602.13,580.58,623.13,568.11,616.77" style="stroke:#181818;stroke-width:1.0;"/></g><!--MD5=[d2919c946ce1930d7729fa7d78cfd6bc]
reverse link Node to VarNode--><g id="link_Node_VarNode"><path codeLine="85" d="M657.24,610.06 C687.03,629.04 719.43,650.76 732,663 C752.36,682.83 770.71,709.27 783.51,729.84 " fill="none" id="Node-backto-VarNode" style="stroke:#181818;stroke-width:1.0;"/><polygon fill="none" points="653.35,615.89,640.16,599.3,660.82,604.05,653.35,615.89" style="stroke:#181818;stroke-width:1.0;"/></g><!--MD5=[dfe5e3c82bc014289581f171b26a413c]
reverse link Node to OpNode--><g id="link_Node_OpNode"><path codeLine="86" d="M611.47,621.39 C615.07,634.2 619.09,648.52 623.16,662.99 " fill="none" id="Node-backto-OpNode" style="stroke:#181818;stroke-width:1.0;"/><polygon fill="none" points="604.72,623.28,606.05,602.13,618.2,619.49,604.72,623.28" style="stroke:#181818;stroke-width:1.0;"/></g><!--MD5=[e9547481a1b803e1ce50ae429d12fbc1]
reverse link OpNode to Add--><g id="link_OpNode_Add"><path codeLine="87" d="M650.49,883.26 C650.36,913.81 650.23,944.16 650.14,965.97 " fill="none" id="OpNode-backto-Add" style="stroke:#181818;stroke-width:1.0;"/><polygon fill="none" points="643.49,883.21,650.58,863.24,657.49,883.27,643.49,883.21" style="stroke:#181818;stroke-width:1.0;"/></g><!--MD5=[d78e50c9d55e6b8f9f0d7aea0e417ccf]
reverse link OpNode to Sub--><g id="link_OpNode_Sub"><path codeLine="88" d="M717.04,881.08 C734.69,912.36 752.34,943.65 764.93,965.97 " fill="none" id="OpNode-backto-Sub" style="stroke:#181818;stroke-width:1.0;"/><polygon fill="none" points="710.71,884.1,706.98,863.24,722.9,877.22,710.71,884.1" style="stroke:#181818;stroke-width:1.0;"/></g><!--MD5=[90c4e871892692590b065e3eedab9dfa]
reverse link OpNode to Mul--><g id="link_OpNode_Mul"><path codeLine="89" d="M572.08,862.23 C571.72,862.49 571.36,862.75 571,863 C527.51,893.51 500.17,869.68 458,902 C436.11,918.78 419.04,945.09 407.89,965.93 " fill="none" id="OpNode-backto-Mul" style="stroke:#181818;stroke-width:1.0;"/><polygon fill="none" points="567.82,856.67,587.73,849.42,576.69,867.5,567.82,856.67" style="stroke:#181818;stroke-width:1.0;"/></g><!--MD5=[437985d73bc0b5323bed55849fb1435b]
reverse link OpNode to Div--><g id="link_OpNode_Div"><path codeLine="90" d="M585.46,881.08 C567.94,912.36 550.43,943.65 537.93,965.97 " fill="none" id="OpNode-backto-Div" style="stroke:#181818;stroke-width:1.0;"/><polygon fill="none" points="579.57,877.27,595.44,863.24,591.78,884.11,579.57,877.27" style="stroke:#181818;stroke-width:1.0;"/></g><!--MD5=[86a45439499c7ae9bce5b7fd11583842]
reverse link OpNode to MyOpNode--><g id="link_OpNode_MyOpNode"><path codeLine="95" d="M571.55,862.68 C571.37,862.78 571.19,862.89 571,863 C477.15,917.46 422.85,845.85 330,902 C303.79,917.85 283.94,947.15 271.79,969.23 " fill="none" id="OpNode-backto-MyOpNode" style="stroke:#181818;stroke-width:1.0;"/><polygon fill="none" points="567.6,856.9,587.97,851.03,575.71,868.31,567.6,856.9" style="stroke:#181818;stroke-width:1.0;"/></g><!--MD5=[38ff89f3ce81983ad6fbcb58d2c4579f]
@startuml "Expression Tree"

package "UI Layer" {
    class ExpressionTreeConsole {
        +tree: ExpressionTree
        +postfix: string
        +PrintMenu()
        +GetInput()
        +ExecuteMenuOption()
    }

}

package "Logic Layer" {

    class ExpressionTree

    package "Factories" {
        note bottom of ExpressionTreeFactory : from a string postfix, produces a tree
        class ExpressionTreeFactory
        note bottom of PostfixFactory : from a string infix, produces a string postfix
        class PostfixFactory
        class NodeFactory
    }
    ExpressionTreeConsole ..> ExpressionTreeFactory
    ExpressionTreeConsole ..> PostfixFactory
    ExpressionTreeConsole - -o ExpressionTree
    ExpressionTreeFactory - - ExpressionTree : creates
    ExpressionTree - -> NodeFactory : use

    class PostfixFactory {
        -infix: string
        +postfix: string
        ~MakePostFix()
    }

    package "TreeNodes" {
        ExpressionTree - -* Node
        NodeFactory - - Node : creates

        note top of Node : a node in the tree
        abstract class Node << general >>

        class MyOpNode {
        }

        note top of ConstNode : a node that holds a constant
        class ConstNode {
            +Value: int
        }

        note top of VarNode : a node that holds a variable
        class VarNode {
            +Name: string
        }

        abstract class OpNode << generalized >> {
            -operator: {static} char
            -precedence: {static} int
            -associativity: {static} int
            +Operator: char
            +Precedence: int
            +Associativity: int
            +Left: Node
            +Right: Node
        }

        package "Base Ops" {
            class Add {
                +{static} Add('+', 10)
            }

            class Sub {
                +{static} Sub('-', 10)
            }

            class Mul {
                +{static} Mul('*', 11)
            }

            class Div {
                +{static} Div('/', 11)
            }

            Node <|- - ConstNode
            Node <|- - VarNode
            Node <|- - OpNode
            OpNode <|- - Add
            OpNode <|- - Sub
            OpNode <|- - Mul
            OpNode <|- - Div
        }

        note top of MyOpNode : a node that holds a custom operator
        class MyOpNode << placeholder >>
        OpNode <|- - MyOpNode
    }
}
@enduml

PlantUML version 1.2022.7(Mon Aug 22 10:01:30 PDT 2022)
(GPL source distribution)
Java Runtime: OpenJDK Runtime Environment
JVM: OpenJDK 64-Bit Server VM
Default Encoding: Cp1252
Language: en
Country: US
--></g></svg>